<?xml version="1.0" encoding="UTF-8" standalone="no"?>
<svg
   viewBox="0 0 568 501"
   version="1.1"
   id="svg1"
   sodipodi:docname="bluesky.svg"
   inkscape:version="1.3.2 (091e20e, 2023-11-25, custom)"
   xmlns:inkscape="http://www.inkscape.org/namespaces/inkscape"
   xmlns:sodipodi="http://sodipodi.sourceforge.net/DTD/sodipodi-0.dtd"
   xmlns="http://www.w3.org/2000/svg"
   xmlns:svg="http://www.w3.org/2000/svg">
  <defs
     id="defs1" />
  <sodipodi:namedview
     id="namedview1"
     pagecolor="#ffffff"
     bordercolor="#000000"
     borderopacity="0.25"
     inkscape:showpageshadow="2"
     inkscape:pageopacity="0.0"
     inkscape:pagecheckerboard="0"
     inkscape:deskcolor="#d1d1d1"
     inkscape:zoom="3.3712575"
     inkscape:cx="283.87034"
     inkscape:cy="250.35169"
     inkscape:window-width="3200"
     inkscape:window-height="1966"
     inkscape:window-x="-11"
     inkscape:window-y="-11"
     inkscape:window-maximized="1"
     inkscape:current-layer="svg1" />
  <path
     fill="currentColor"
     d="M123.121 33.664C188.241 82.553 258.281 181.68 284 234.873c25.719-53.192 95.759-152.32 160.879-201.21C491.866-1.611 568-28.906 568 57.947c0 17.346-9.945 145.713-15.778 166.555-20.275 72.453-94.155 90.933-159.875 79.748C507.222 323.8 536.444 388.56 473.333 453.32c-119.86 122.992-172.272-30.859-185.702-70.281-2.462-7.227-3.614-10.608-3.631-7.733-.017-2.875-1.169.506-3.631 7.733-13.43 39.422-65.842 193.273-185.702 70.281-63.111-64.76-33.89-129.52 80.986-149.071-65.72 11.185-139.6-7.295-159.875-79.748C9.945 203.659 0 75.291 0 57.946 0-28.906 76.135-1.612 123.121 33.664Z"
     id="path1" />
  <path
     style="fill:#ffffff;stroke-width:0.296625"
     d="M 173.52575,499.77123 C 150.38561,497.54251 125.80766,483.6315 99.705567,457.98934 90.598431,449.04268 84.946626,442.61588 79.523009,435.03924 70.148638,421.94351 64.409877,408.46127 62.714186,395.54973 c -0.712345,-5.42403 -0.444576,-13.6509 0.608242,-18.68739 4.947347,-23.66719 24.347414,-43.11085 56.817092,-56.9448 14.13952,-6.02422 32.72089,-11.38095 51.01323,-14.70629 2.36559,-0.43002 4.36781,-0.85482 4.44938,-0.94398 0.0816,-0.0891 -0.38561,-0.0763 -1.03819,0.0284 -33.49202,5.37631 -65.3673,2.90649 -91.804714,-7.11331 C 76.977019,294.99088 66.32103,289.67966 61.401421,286.53705 40.045879,272.89531 25.659333,254.18783 17.491959,229.43961 15.151258,222.34698 14.066562,216.56526 11.994172,200.13498 7.2409251,162.45037 0.28725706,77.630172 0.28690502,57.330827 0.28664384,42.270823 2.3919552,31.069048 7.0001452,21.611549 17.252992,0.5693846 39.346051,-5.1375011 70.42988,5.2269345 c 15.928057,5.3109715 34.87357,15.5140685 51.18646,27.5664405 13.27389,9.807079 24.38259,19.597945 40.51919,35.712342 17.32681,17.302973 29.61277,31.089971 46.53529,52.220753 29.19931,36.46053 56.8739,78.01498 72.27154,108.51848 1.63418,3.23738 3.02396,5.83343 3.0884,5.769 0.0644,-0.0644 1.30449,-2.44625 2.75568,-5.29291 17.975,-35.2598 48.99494,-80.9477 81.45384,-119.96971 C 393.99287,78.791632 420.56897,52.387826 443.45471,35.024545 474.81606,11.230856 508.33907,-2.08128 530.5022,0.45762357 551.53598,2.867156 563.44483,16.795336 567.0127,43.15897 c 1.34807,9.961206 0.79006,25.459651 -2.39759,66.59236 -4.13478,53.35415 -8.76012,96.89642 -11.8754,111.79349 -1.57597,7.53615 -6.04465,19.09452 -10.52755,27.22982 -5.15591,9.35663 -10.6263,16.51467 -18.56349,24.29045 -8.15924,7.9933 -16.20618,13.63626 -27.44729,19.24755 -27.02212,13.48877 -61.45307,17.89719 -98.39302,12.59789 -2.83633,-0.40688 -5.20877,-0.68802 -5.27204,-0.62475 -0.0633,0.0633 1.52323,0.4142 3.52557,0.77988 23.62575,4.31439 44.39355,10.8165 60.85678,19.05343 6.19594,3.09997 8.53999,4.4438 14.12218,8.09621 5.74652,3.75993 10.44732,7.51402 14.78191,11.80491 4.48906,4.44383 6.96772,7.40133 9.96681,11.89227 7.08294,10.60622 10.2937,21.66461 9.87106,33.99764 -0.61615,17.98023 -8.96893,36.28836 -25.31675,55.49072 -3.56558,4.18817 -16.21116,16.86789 -21.01972,21.07646 -22.21308,19.4415 -40.87745,29.50552 -60.80817,32.78839 -4.44562,0.73225 -14.71751,0.73237 -18.98402,2.1e-4 -11.91603,-2.04485 -22.73496,-7.05915 -33.07371,-15.32885 -3.73683,-2.989 -12.07641,-11.23394 -15.22251,-15.04979 -16.50998,-20.02463 -29.23639,-44.89458 -42.36622,-82.79216 -3.85723,-11.13341 -4.21003,-11.9836 -4.91627,-11.8476 -0.72915,0.14043 -0.97421,0.73139 -4.4009,10.61346 -7.57635,21.84909 -12.61788,34.09304 -19.97368,48.50849 -7.2599,14.22751 -13.71407,24.32288 -22.28246,34.85346 -3.48841,4.28728 -11.67301,12.48285 -15.55629,15.57716 -10.52042,8.38295 -21.40391,13.45593 -33.09042,15.42395 -2.74946,0.463 -12.38013,0.81147 -15.12376,0.54721 z"
     id="path2" />
</svg>
