<?xml version="1.0" encoding="UTF-8" standalone="no"?>
<svg
   width="1200pt"
   height="1200pt"
   version="1.1"
   viewBox="0 0 1200 1200"
   id="svg1"
   sodipodi:docname="logo.svg"
   inkscape:version="1.3.2 (091e20e, 2023-11-25, custom)"
   xmlns:inkscape="http://www.inkscape.org/namespaces/inkscape"
   xmlns:sodipodi="http://sodipodi.sourceforge.net/DTD/sodipodi-0.dtd"
   xmlns="http://www.w3.org/2000/svg"
   xmlns:svg="http://www.w3.org/2000/svg">
  <defs
     id="defs1" />
  <sodipodi:namedview
     id="namedview1"
     pagecolor="#ffffff"
     bordercolor="#000000"
     borderopacity="0.25"
     inkscape:showpageshadow="2"
     inkscape:pageopacity="0.0"
     inkscape:pagecheckerboard="0"
     inkscape:deskcolor="#d1d1d1"
     inkscape:document-units="pt"
     inkscape:zoom="1.055625"
     inkscape:cx="799.52635"
     inkscape:cy="799.52635"
     inkscape:window-width="3200"
     inkscape:window-height="1966"
     inkscape:window-x="-11"
     inkscape:window-y="-11"
     inkscape:window-maximized="1"
     inkscape:current-layer="svg1" />
  <path
     d="m1027.5 869.99c-7.4141-26.27-23.293-47.723-37.895-69.996-3.8984-5.9141-8.2812-11.867-8.4258-19.332-0.38281-21.371-0.023437-42.742-1.3789-64.129-1.0781-16.609 0.875-33.434-0.53906-49.992-1.6797-19.02 2.0039-34.766 18.59-45.898 0.43359-0.27734 0.71875-0.75781 1.1289-1.1172 2.5078-2.0898 3.4219-4.9062 2.5078-7.8477-1.8828-5.9883-1.0664-12.059-1.2344-18.109 0.25391-0.42188 0.46875-0.83984 0.69531-1.2734-0.22656 0.12109-0.45703 0.21484-0.69531 0.32422-0.49219-18.059-0.99609-36.156-1.4766-54.227-0.023438 0-0.023438 0-0.035157-0.023437-0.046874-3.6719-0.52734-7.3906-0.046874-10.992 1.5117-11.484-1.7031-20.195-12.203-26.41-3.875-2.3047-8.1719-5.5781-8.5781-11.496-0.92578-13.246-1.1172-13.246-14.172-17.172-2.7461-0.82812-5.4727-1.6914-8.2188-2.5312-0.39453-0.34766-0.81641-0.55078-1.2344-0.74219 0.39453-0.070313 0.80469-0.13281 1.2344-0.21484 1.7148-3.457 0.99609-7.1758 1.0078-10.777 0.10938-13.715 0.035156-13.715-13.43-12.695-5.125 0.46875-6.9609-1.3672-7.0938-6.9727-0.53906-26.797-1.668-53.566-2.5938-80.34 0.48047-11.184-1.8828-21.984-4.7148-32.676-8.4102-31.848-24.516-59.809-43.559-86.316-10.656-14.797-22.68-28.523-35.387-41.426-9.7188-9.875-21.422-17.832-32.953-25.738-49.934-34.234-101.98-62.914-164.84-63.422-5.1094-0.074218-7.6289-2.2109-7.5-7.7773 0.27734-12.156 0.14453-24.324 0.058594-36.492-0.035156-2.207 0.88672-5.8906-2.1484-5.9648-5.6758-0.13281-12.098-3.457-16.859 2.5781-0.99609 8.0742-0.68359 16.211-0.68359 24.324-0.023438 64.402 0 128.79-0.070313 193.18 0 3.5898 0.94922 7.4297-1.4883 10.754-2.7969 2.0039-6.0352 1.4414-9.0703 1.2969-12.406-0.5625-24.91 1.5859-37.262-1.1992-2.5312-3.2539-1.5586-7.0781-1.5859-10.691-0.50391-72.551 0.86328-145.11-0.75781-217.67-2.1133-4.5703-6.3125-2.6641-9.7578-3.1562-6.9375-0.99609-10.008 1.1875-9.457 8.9297 0.71875 9.7305 0.17969 19.559 0.16797 29.328 0 12.469 0 12.695-12.156 12.492-9.2773-0.15625-18.434 0.92578-27.469 2.543-42.574 7.6211-80.328 26.711-116.35 49.691-17.566 11.195-35.258 22.68-49.777 37.523-25.68 26.258-48.023 55.297-63.996 88.777-10.738 22.512-18.875 45.73-19.129 71.062-0.92578 26.785-2.0508 53.555-2.5938 80.328-0.12109 5.6172-1.9336 7.4648-7.0664 6.9844-3.1211-0.28906-6.2773-0.34766-9.3242-0.94922-2.5547-0.51563-4.2734-0.32422-4.1055 2.6758 0.39453 7.2461-1.1523 14.594 0.99609 21.742 0.38281 0.097656 0.76953 0.15625 1.1641 0.23828-0.38281 0.19141-0.76953 0.42187-1.1641 0.71875-5.9766 1.9219-11.914 3.9492-17.914 5.7109-3.2148 0.94922-5.1484 2.6055-4.5117 6.1094 1.957 10.789-4.1641 16.98-12.238 22.355-6 4.0078-9.4922 9.2656-8.543 17.148 0.67188 5.6875 0.035156 11.52 0 17.293-0.011718 0.011719-0.011718 0.011719-0.023437 0.023437-0.50391 18.07-0.98438 36.145-1.4883 54.215-0.21484-0.10938-0.40625-0.20312-0.60156-0.28906 0.20312 0.40625 0.35938 0.82812 0.60156 1.2461-2.6992 15.973-0.22656 29.977 14.734 39.457 5.1719 3.2891 6.0234 8.4258 6.1328 14.438 0.69531 39.91-2.125 79.789-1.4648 119.7 0.25391 14.281-3.5039 26.219-11.746 37.523-19.598 26.879-36 55.344-40.152 89.219-2.5195 20.531-0.23828 40.234 9.4453 59.102 9.4219 18.359 27.086 28.367 40.777 42.336 9.6133 9.793 21.277 17.258 33.289 23.988 2.293 1.2734 3.1328 3.4922 4.2617 5.543 30.805 57.215 77.484 94.453 140.34 111.18 28.691 7.6445 57.648 10.043 86.398 0.98438 41.195-12.984 66.191-41.844 77.965-82.656 1.5234-5.2812 3.6836-6.5273 8.6406-6.6367 11.902-0.26562 23.617 2.1484 35.543 1.7773 9.2266-0.30078 18.289-2.293 27.602-1.8125 4.9336 0.25391 7.1758 1.332 8.6406 6.6836 8.3047 30.156 24.742 54.973 51.961 71.039 28.344 16.738 59.016 20.207 91.523 14.82 63.109-10.441 112.88-41.797 148.49-94.43 10.754-15.875 20.855-31.008 38.051-40.559 10.141-5.6289 16.906-15.719 26.027-22.68 12.395-9.4922 22.957-20.207 29.352-34.523 11.512-25.719 9.2656-51.699 1.8398-78.027zm-532.31 193.62c-7.2852 10.344-15.527 20.113-24.91 28.645-17.977 16.297-46.105 15.359-63.254-1.7148-2.3047-2.3164-4.9453-3.8281-7.5977-5.5195-26.473-16.895-32.508-40.848-5.3633-63.516 16.152-13.488 35.652-14.676 58.633-13.621 7.957 0.68359 18.996 1.6914 30.086 2.4492 3.4336 0.22656 5.9297 1.5117 8.2305 3.9609 13.477 14.238 15.457 33.258 4.1758 49.316zm138.34-55.227c-4.5703 9.5625-10.176 8.6289-17.363 7.9922-2.7344-0.25391-3.9492 1.0078-4.2461 3.4062-0.625 5.4102-3.5625 5.543-7.8477 3.9102-1.8711-0.69531-4.332-0.85156-6.2266-0.26562-5.125 1.6211-9.0977 2.3633-10.152-4.8945-0.55078-3.8633-4.332-1.8828-6.6719-1.9062-5.2812-0.085938-10.273 2.5781-12.613-6.5039-1.4414-5.6172-7.7539-10.164-6.6367-17.555 1.5234-10.043 9.0977-17.172 12.348-26.352 0.64844-1.7891 2.5195-1.6328 4.0781-1.7539 7.6328-0.625 15.277-1.2109 22.922-1.8359 0.011719 0.10938 0.011719 0.20312 0.011719 0.26562 0.52734 0 1.0547-0.011719 1.5977 0 22.715 0.76953 23.016 0.89844 32.879 21.254 4.1133 8.4844 2.0977 15.43-2.0781 24.238zm183.86 61.008c-11.113 14.305-25.883 24.406-42.359 31.789-5.0625 2.2578-10.836 2.2812-16.391 2.5547-12.422 0.23828-22.727-4.8711-31.066-13.547-7.6797-7.9688-15.059-16.32-21.684-25.188-12.168-16.32-10.895-34.945 2.5781-49.969 1.7539-1.9805 3.3711-4.2344 6.3008-4.4297 20.785-1.4297 41.543-5.2578 62.41-1.7539 16.836 2.8203 30.551 10.848 40.414 25.32 8.2578 12.09 8.4141 24.102-0.20312 35.223zm68.027-461.29c-5.7852 19.922-5.1016 15.84-19.547 9.3594-21.961-9.8516-41.809-23.688-63.348-34.414-34.895-17.41-72.023-28.836-109.64-38.496-28.379-7.2852-53.23 10.586-59.16 42.781-8.7461 47.566-16.344 95.34-24.406 143-0.42188 2.4844-1.6094 4.8008 2.3516 6.2383 32.051 11.531 60.793 29.23 88.633 48.457 15.012 10.367 29.531 21.457 44.184 32.305 21.898 16.262 44.988 30.562 69.602 42.348 1.1992 0.71875 3.6016 0.17969 3.2656 2.4961-0.23828 1.7266-2.0391 1.2461-3.2539 1.2461-1.5117 0-3.2031 0.52734-4.4023-0.97266-52.078-18.254-101.3-43.141-151.68-65.438-38.34-16.98-77.664-16.992-116 0-43.859 19.488-86.965 40.621-131.64 58.223-6.6016 2.5938-13.355 4.8242-20.039 7.2227-1.3555 1.668-3.2383 0.88672-4.8945 0.97266-1.1641 0.070312-2.8203 0.25391-2.8086-1.5117 0.011719-2.0156 2.125-1.6094 3.3242-2.2578 24.625-11.762 47.699-26.074 69.602-42.324 14.652-10.859 29.16-21.949 44.172-32.305 27.84-19.234 56.578-36.949 88.645-48.48 4.6094-1.6445 2.6172-4.4883 2.207-6.9961-6.6719-39.336-13.367-78.695-20.23-117.97-1.957-11.16-2.7344-22.523-6.5508-33.359-9.9492-28.262-32.293-40.223-61.285-32.664-53.988 14.09-105.41 34.164-152.83 63.949-7.3438 4.6094-15.602 7.7539-23.363 11.676-4.1758 2.1133-6.625 1.0938-8.4258-3.3242-4.1289-10.129-6.5391-20.676-7.5977-31.488-2.2812-23.426-4.7266-46.906 0.69531-70.262 0.82812-3.5898 1.9453-7.1523 3.3594-10.559 4.1055-9.9258 7.2969-11.746 18.098-11.426 93.035 2.7734 185.99 6.9961 279.1 6.7578 85.715-0.23828 171.25-4.3672 256.88-6.9961 8.6172-0.26562 13.488 2.9766 16.715 10.199 3.7422 8.3047 5.9766 17.125 6.4453 26.074 1.3594 26.191 1.2305 52.52-6.1641 77.938z"
     id="path1" />
  <path
     style="fill:#cccccc;stroke-width:0.947306"
     d="m 576.7857,1522.7284 c -37.4086,-2.5623 -85.666,-17.4376 -121.13147,-37.3387 -22.97671,-12.8931 -42.11525,-27.4225 -61.13866,-46.4146 -19.57174,-19.5396 -37.69125,-43.7224 -51.90334,-69.2718 l -5.32585,-9.5745 -11.15355,-6.6821 c -14.46972,-8.6688 -24.35215,-16.0997 -35.90409,-26.9973 -5.14387,-4.8526 -14.46793,-13.2683 -20.72016,-18.7015 -20.64457,-17.9403 -27.53307,-25.9441 -34.36068,-39.9237 -8.31496,-17.025 -11.53337,-30.5742 -12.22903,-51.4832 -1.47463,-44.3215 13.40048,-85.1008 49.99756,-137.0656 10.71212,-15.2103 15.56846,-25.2316 17.85652,-36.8476 1.50355,-7.6333 1.87218,-16.3481 2.56098,-60.54503 0.44254,-28.3955 0.80461,-68.89284 0.80461,-89.99408 v -38.3659 l -2.24678,-3.9209 c -1.27681,-2.22819 -4.61329,-5.58982 -7.72839,-7.78665 -14.21558,-10.0251 -19.95893,-24.43385 -17.9292,-44.98027 0.94419,-9.55783 2.80014,-72.18127 2.82599,-95.3548 0.0195,-17.43605 0.869,-20.10459 8.45659,-26.56317 17.75921,-15.11668 19.33144,-17.46117 19.41075,-28.945 0.033,-4.77923 0.51144,-8.22182 1.26964,-9.13569 0.66918,-0.80656 7.48978,-3.47361 15.1569,-5.92675 7.66712,-2.45316 14.10754,-4.61953 14.31203,-4.81419 0.20451,-0.19465 -0.22041,-1.06751 -0.94426,-1.9397 -1.96889,-2.37236 -2.52621,-28.88294 -0.6401,-30.44826 1.00463,-0.83378 3.40582,-0.88648 9.33465,-0.20487 11.18369,1.28573 12.05428,1.20886 14.5476,-1.28447 2.4997,-2.49969 1.97223,6.19526 4.80771,-79.25182 0.76937,-23.18531 1.63579,-44.92599 1.92536,-48.31261 3.7177,-43.47938 29.68194,-101.47926 67.63934,-151.09532 21.65229,-28.30282 47.92812,-55.8957 66.95827,-70.31452 12.71947,-9.63732 40.84188,-28.32114 59.0902,-39.25805 43.95537,-26.34409 82.01864,-42.74897 120.31017,-51.85244 19.46023,-4.6265 27.94181,-5.81052 47.80496,-6.67356 17.43506,-0.75755 19.0384,-0.97493 20.49951,-2.77933 1.30529,-1.61196 1.69213,-5.18082 2.19143,-20.21713 0.33348,-10.04279 0.48702,-23.514704 0.34122,-29.937586 -0.2561,-11.281203 -0.18912,-11.739841 1.97127,-13.499112 3.23731,-2.636215 16.90533,-2.643315 20.1572,-0.01047 l 2.23638,1.810674 0.47365,150.942434 c 0.26051,83.01834 0.82286,151.64643 1.24966,152.50687 0.42681,0.86044 1.70567,1.87449 2.84192,2.25345 1.13626,0.37897 14.16844,0.87417 28.96042,1.10046 27.7376,0.42433 31.26293,0.0662 32.95453,-3.3473 0.42821,-0.86407 0.9917,-69.23245 1.25221,-151.92972 l 0.47365,-150.35867 2.0172,-2.017065 c 1.10947,-1.109386 3.44836,-2.309766 5.19754,-2.667511 4.01364,-0.820876 16.23749,0.698425 17.16389,2.133297 0.38279,0.592888 0.7025,14.375698 0.71048,30.628469 0.0184,37.55657 -1.76636,34.31602 19.48427,35.37652 37.99649,1.89618 69.70949,9.4371 107.68156,25.60519 34.33414,14.61912 84.22314,44.37339 124.27644,74.11964 34.9646,25.96699 81.1887,84.32805 105.9829,133.81038 10.3796,20.71491 19.1535,45.06765 23.7161,65.82582 3.2739,14.89557 3.2504,14.57857 4.928,66.26258 2.6225,80.78896 2.5434,79.52163 5.0951,81.58792 1.8797,1.52207 3.5773,1.74945 11.5224,1.54322 12.9304,-0.33563 12.7215,-0.60507 12.7215,16.40233 0,10.27785 -0.2953,13.44562 -1.3122,14.07489 -1.8012,1.11473 0.157,2.0764 10.7852,5.29669 11.0097,3.33586 15.2785,5.54482 16.9167,8.75374 0.7289,1.42769 1.76,6.37924 2.2915,11.00346 1.0825,9.41971 2.2706,11.6333 8.8254,16.44504 9.182,6.7403 14.4597,12.12823 16.7234,17.07276 2.1826,4.76747 2.2964,6.00629 2.5663,27.94956 0.6885,55.96035 1.7696,95.42511 2.7702,101.11373 0.5956,3.38662 0.9416,7.1178 0.7689,8.2915 -0.1759,1.19584 -2.6796,4.11112 -5.6947,6.63115 -17.4757,14.60567 -23.9102,27.54041 -24.1505,48.54686 -0.1178,10.29632 0.7851,68.523 1.9976,128.83361 0.7917,39.377 0.9228,41.4502 2.9511,46.6637 1.1673,3.0008 8.3982,14.9369 16.0686,26.5246 29.5084,44.5789 37.9653,61.2946 45.0995,89.143 4.3735,17.0726 6.1763,30.2902 6.1719,45.2503 -0.012,39.1485 -13.5092,67.9536 -43.307,92.4225 -5.5887,4.5892 -15.5229,13.4825 -22.0759,19.763 -7.452,7.1418 -14.7353,13.1284 -19.4452,15.9832 -18.4771,11.1992 -27.1724,20.4282 -48.7086,51.6979 -39.6511,57.5718 -87.1257,94.4685 -147.8942,114.9418 -56.5508,19.0523 -106.7631,20.7508 -147.56848,4.9918 -45.6915,-17.646 -76.15686,-50.5225 -92.04351,-99.3278 -5.50314,-16.9062 -4.50602,-16.3074 -25.54896,-15.3417 -21.47313,0.9855 -38.91073,0.9906 -60.62759,0.018 -22.11733,-0.9907 -20.93748,-1.6717 -26.54133,15.321 -9.77985,29.6557 -25.82446,55.0879 -45.36171,71.9026 -32.15969,27.6781 -75.53455,41.303 -121.47112,38.1566 z m 27.44043,-53.1316 c 11.92468,-3.6479 16.80007,-6.9465 30.52553,-20.6532 29.19023,-29.1502 38.85738,-48.3279 34.78387,-69.0046 -0.82831,-4.2043 -2.87499,-10.425 -4.54819,-13.8238 -4.06731,-8.2619 -12.27972,-17.2918 -16.85498,-18.5328 -6.32215,-1.7148 -42.01057,-4.2583 -59.38162,-4.2322 -18.98242,0.029 -28.4697,1.2391 -39.97398,5.1004 -11.59707,3.8926 -20.36094,9.5387 -30.2435,19.4847 -17.34208,17.4532 -21.41003,34.4357 -12.56068,52.4372 3.89875,7.9308 13.88107,18.3562 24.25174,25.3282 4.50869,3.031 10.78269,7.7686 13.94224,10.5278 6.23766,5.4473 17.43686,11.7112 24.2171,13.5449 11.82782,3.1987 25.02135,3.1337 35.84247,-0.1766 z m 435.24327,-3.8359 c 25.6295,-12.515 47.6762,-31.3904 55.711,-47.6971 6.0299,-12.2378 4.3804,-25.7792 -4.8146,-39.527 -12.0435,-18.0065 -30.6452,-29.7027 -54.0129,-33.9618 -10.4812,-1.9103 -43.50672,-1.4894 -67.25876,0.8573 l -19.41978,1.9187 -5.52201,5.9907 c -16.17677,17.5498 -18.91058,41.4872 -7.03208,61.5733 4.43596,7.5009 18.9339,24.7867 30.52885,36.3993 17.46989,17.4964 24.37196,20.4464 46.96938,20.0748 l 13.7896,-0.2268 z M 800.94731,1365.2606 c 2.08407,0.011 5.59686,0.3478 7.80621,0.748 4.98234,0.9023 6.31674,-0.082 7.73273,-5.7057 l 1.0662,-4.2342 h 7.50313 c 11.59819,0 15.2439,-2.0821 19.90456,-11.3677 7.5743,-15.0905 7.65179,-23.1052 0.36713,-37.9706 -9.35702,-19.0943 -12.25243,-21.2341 -30.79843,-22.7612 -8.3539,-0.6878 -16.00956,-0.6458 -26.84382,0.1478 -22.59113,1.6546 -20.77254,0.8994 -26.17444,10.8698 -9.57595,17.6744 -12.29566,23.8199 -12.82465,28.9784 -0.48961,4.7746 -0.20989,5.7006 4.31771,14.2959 2.66268,5.0549 4.84124,9.8179 4.84124,10.5846 0,0.7665 1.14055,2.7492 2.53455,4.4059 l 2.53455,3.0121 9.53695,-0.3343 9.53694,-0.3344 1.23577,3.7643 c 2.06574,6.2926 3.68276,7.4543 9.19791,6.6079 2.60509,-0.3999 6.44168,-0.7178 8.52576,-0.7066 z M 533.6479,1145.8545 c 29.47895,-10.7708 65.34255,-26.1511 129.70782,-55.6259 53.73743,-24.6079 67.63189,-30.6474 79.33226,-34.4833 22.16503,-7.2668 41.34813,-10.0102 63.94316,-9.1449 16.49923,0.632 27.79815,2.4271 43.35211,6.8876 14.8693,4.2641 23.62059,7.9387 76.48211,32.1146 74.11104,33.894 100.99424,45.4881 136.18364,58.7327 15.016,5.6519 20.0637,7.1601 23.2009,6.9325 2.8652,-0.2079 4.0961,-0.7481 4.3131,-1.8929 0.2247,-1.1852 -1.6217,-2.4915 -7.0966,-5.0207 -17.7893,-8.2181 -50.5202,-27.3109 -70.3962,-41.064 -4.9497,-3.425 -20.45139,-14.7032 -34.44828,-25.0629 -69.2041,-51.2208 -109.52572,-75.8061 -151.69735,-92.4945 -6.77324,-2.68033 -12.78893,-5.49658 -13.36819,-6.25832 -0.7978,-1.04909 1.87767,-18.78735 11.03192,-73.14139 13.78476,-81.84806 21.10918,-123.22922 23.26413,-131.4367 2.13454,-8.12973 7.89394,-19.87697 13.13739,-26.79587 11.98647,-15.81653 31.38483,-24.89341 50.2555,-23.51555 15.25037,1.11351 77.64874,19.44793 113.19258,33.25919 29.9909,11.65358 47.3617,20.19626 84.7839,41.69537 25.8333,14.84132 57.9086,31.01109 61.5153,31.01109 1.3321,0 3.0583,-0.52805 3.8359,-1.17344 3.0746,-2.55165 10.5506,-30.15264 13.4737,-49.74426 2.4269,-16.26511 2.4757,-75.0303 0.072,-85.86465 -3.4874,-15.71502 -8.7366,-27.30057 -14.2639,-31.48189 -6.1989,-4.68938 -4.2313,-4.66915 -107.9351,-1.11005 -161.04006,5.52686 -167.78582,5.67217 -262.67728,5.65796 -92.88271,-0.0139 -106.59245,-0.28998 -256.71995,-5.1695 -102.17056,-3.3208 -113.02607,-3.43582 -117.63993,-1.24639 -7.59386,3.60352 -14.43585,21.72909 -17.41826,46.14389 -2.20886,18.08226 0.25278,68.34904 4.43661,90.59579 2.1633,11.50293 7.73094,27.91108 10.47582,30.87286 1.89002,2.03936 2.85921,2.38907 5.27956,1.905 4.91218,-0.98244 30.57042,-13.90026 45.71285,-23.01447 51.83244,-31.19787 111.90244,-56.46768 177.14624,-74.52063 25.17052,-6.96468 28.90006,-7.6008 41.01565,-6.99579 23.03132,1.15011 40.38167,13.02281 51.2418,35.06434 5.56863,11.30199 7.79285,18.88965 10.56743,36.04949 2.44748,15.1369 24.52722,144.55629 28.3916,166.41616 2.16717,12.25903 2.51451,15.87368 1.61098,16.76404 -0.63356,0.62431 -6.69365,3.3392 -13.46689,6.03308 -42.18282,16.77714 -80.65673,40.17994 -148.72706,90.46724 -45.66971,33.7387 -66.39113,47.098 -98.04618,63.2115 -9.11782,4.6412 -16.73709,8.591 -16.93171,8.7773 -0.19462,0.1863 -0.10143,0.9966 0.2071,1.8006 1.08688,2.8323 7.82351,1.6557 23.67032,-4.1343 z"
     id="path2"
     transform="scale(0.75)" />
</svg>
